<svg width="0" height="0" class="hidden">
  <symbol  xmlns="http://www.w3.org/2000/svg" viewBox="0 0 18 18" id="Library">
    <path d="M8.25 1.5v6a.75.75 0 01-.75.75h-6a.75.75 0 01-.75-.75v-6A.75.75 0 011.5.75h6a.75.75 0 01.75.75zM16.5.75h-6a.75.75 0 00-.75.75v6a.75.75 0 00.75.75h6a.75.75 0 00.75-.75v-6a.748.748 0 00-.75-.75zm-9 9h-6a.75.75 0 00-.75.75v6a.75.75 0 00.75.75h6a.748.748 0 00.75-.75v-6a.75.75 0 00-.75-.75zm9 0h-6a.75.75 0 00-.75.75v6a.75.75 0 00.75.75h6a.748.748 0 00.75-.75v-6a.748.748 0 00-.75-.75z"></path>
  </symbol>
  <symbol  xmlns="http://www.w3.org/2000/svg" viewBox="0 0 24 16" id="Friends">
    <path d="M15.613 14.073A.75.75 0 0115 15.255H1.5a.75.75 0 01-.614-1.18 9.02 9.02 0 014.251-3.267 5.625 5.625 0 116.225 0 9.02 9.02 0 014.251 3.265zm7.643 0a9.02 9.02 0 00-4.251-3.265A5.625 5.625 0 0014.367.709a.75.75 0 00-.399 1.17 7.109 7.109 0 01.36 7.958.75.75 0 00.192.994c.284.212.558.438.82.677l.042.043a10.503 10.503 0 012.388 3.272.75.75 0 00.68.433h4.192a.75.75 0 00.614-1.183z"></path>
  </symbol>
  <symbol  xmlns="http://www.w3.org/2000/svg" viewBox="0 0 24 18" id="Live">
    <path d="M15.75 9a3.75 3.75 0 11-7.5 0 3.75 3.75 0 017.5 0zM7.757 4.757a.75.75 0 10-1.06-1.06 7.494 7.494 0 000 10.606.751.751 0 101.06-1.06 5.995 5.995 0 010-8.486zM19.5 9a7.48 7.48 0 00-2.196-5.303.75.75 0 00-1.061 1.06 5.994 5.994 0 010 8.486.75.75 0 001.06 1.06A7.48 7.48 0 0019.5 9zM3.016 12.795a9.74 9.74 0 012.09-10.69.75.75 0 00-1.06-1.06 11.241 11.241 0 000 15.91.75.75 0 101.06-1.06 9.716 9.716 0 01-2.09-3.1zm19.35-8.174a11.211 11.211 0 00-2.41-3.576.75.75 0 00-1.062 1.06 9.742 9.742 0 010 13.79.75.75 0 101.061 1.06 11.26 11.26 0 002.41-12.334z"></path>
  </symbol>
  <symbol xmlns="http://www.w3.org/2000/svg" viewBox="0 0 22 20" id="Downloads">
    <path d="M6.267 9.108a1.125 1.125 0 011.591-1.591l2.017 2.017V1.747a1.125 1.125 0 012.25 0v7.787l2.017-2.017a1.125 1.125 0 011.591 1.59l-3.938 3.938a1.125 1.125 0 01-1.59 0L6.266 9.108zM20 9.625a1.125 1.125 0 00-1.125 1.125v6.375H3.125V10.75a1.125 1.125 0 00-2.25 0v6.75a1.877 1.877 0 001.875 1.875h16.5a1.877 1.877 0 001.875-1.875v-6.75A1.125 1.125 0 0020 9.625z"></path>
  </symbol>
  <symbol xmlns="http://www.w3.org/2000/svg" viewBox="0 0 22 22" id="Settings">
    <path d="M20.84 12.784L20 11.523v-1.046l.84-1.259a1.527 1.527 0 00.194-1.279 10.445 10.445 0 00-.773-1.871 1.51 1.51 0 00-1.04-.765l-1.487-.297-.74-.74-.297-1.487a1.51 1.51 0 00-.766-1.04 10.488 10.488 0 00-1.87-.773 1.514 1.514 0 00-1.278.194l-1.26.84h-1.046l-1.26-.84A1.507 1.507 0 007.939.966c-.647.196-1.274.456-1.87.773a1.503 1.503 0 00-.766 1.04l-.297 1.487-.74.74-1.488.297a1.505 1.505 0 00-1.04.766 10.49 10.49 0 00-.773 1.87 1.51 1.51 0 00.194 1.278L2 10.477v1.046l-.842 1.261a1.511 1.511 0 00-.193 1.278c.197.646.456 1.272.774 1.868a1.502 1.502 0 001.04.767l1.487.297.74.74.297 1.486a1.5 1.5 0 00.765 1.042c.597.317 1.223.576 1.87.771a1.495 1.495 0 001.279-.193l1.26-.84h1.046l1.26.84a1.485 1.485 0 001.279.194 10.44 10.44 0 001.868-.773 1.498 1.498 0 00.766-1.04l.298-1.487.74-.74 1.487-.297a1.51 1.51 0 001.04-.766c.318-.597.577-1.223.773-1.87a1.528 1.528 0 00-.194-1.277zM11 15.5a4.5 4.5 0 110-9 4.5 4.5 0 010 9z"></path>
  </symbol>
  <symbol xmlns="http://www.w3.org/2000/svg" viewBox="0 0 18 19" id="Home">
    <path d="M18 8.832V17.5a1.5 1.5 0 01-1.5 1.5H12a.75.75 0 01-.75-.75v-6h-4.5v6A.75.75 0 016 19H1.5A1.5 1.5 0 010 17.5V8.832a1.503 1.503 0 01.491-1.11l7.5-6.819a1.494 1.494 0 012.018 0l7.5 6.819A1.504 1.504 0 0118 8.832z"></path>
  </symbol>
  <symbol xmlns="http://www.w3.org/2000/svg" viewBox="0 0 18 22" id="Store">
    <path d="M17.25 13.25a8.25 8.25 0 11-16.5 0c0-2.177.72-4.41 2.14-6.64a.75.75 0 011.091-.19l2.415 1.86L9.046.994A.75.75 0 0110.21.658c.288.223 7.04 5.556 7.04 12.592z"></path>
  </symbol>
</svg>